# xmcd
#
# Track frame offsets:
#	150
#	30462
#	56325
#	79605
#
# Disc length: 1411 seconds
#
# Revision: 1
# Processed by: cddbd v1.5.1PL0 Copyright (c) Steve Scherf et al.
# Submitted via: EasyCDDAExtractor 5.1.0
#
DISCID=21058104
DTITLE=Twila Paris - The Time is Now
DYEAR=1995
DGENRE=Vocal
TTITLE0=The Time is Now
TTITLE1=God is in Control
TTITLE2=Destiny
TTITLE3=Nothing But Love
EXTD=
EXTT0=
EXTT1=
EXTT2=
EXTT3=
PLAYORDER=
